<mxfile host="Electron" agent="Mozilla/5.0 (Macintosh; Intel Mac OS X 10_15_7) AppleWebKit/537.36 (KHTML, like Gecko) draw.io/27.0.5 Chrome/134.0.6998.205 Electron/35.3.0 Safari/537.36" version="27.0.5">
  <diagram name="第 1 页" id="h5CQwUrFWJoRgH8NKLZA">
    <mxGraphModel dx="1234" dy="803" grid="1" gridSize="10" guides="1" tooltips="1" connect="1" arrows="1" fold="1" page="1" pageScale="1" pageWidth="827" pageHeight="1169" math="0" shadow="0">
      <root>
        <mxCell id="0" />
        <mxCell id="1" parent="0" />
        <mxCell id="PuUGM72h_hGncvLsJjf4-1" value="" style="endArrow=none;html=1;rounded=0;" edge="1" parent="1">
          <mxGeometry width="50" height="50" relative="1" as="geometry">
            <mxPoint x="160" y="280" as="sourcePoint" />
            <mxPoint x="520" y="280" as="targetPoint" />
          </mxGeometry>
        </mxCell>
        <mxCell id="PuUGM72h_hGncvLsJjf4-2" value="" style="endArrow=none;html=1;rounded=0;" edge="1" parent="1">
          <mxGeometry width="50" height="50" relative="1" as="geometry">
            <mxPoint x="160" y="360" as="sourcePoint" />
            <mxPoint x="520" y="360" as="targetPoint" />
          </mxGeometry>
        </mxCell>
        <mxCell id="PuUGM72h_hGncvLsJjf4-3" value="&lt;font style=&quot;font-size: 20px;&quot;&gt;队头&lt;/font&gt;" style="text;html=1;align=center;verticalAlign=middle;whiteSpace=wrap;rounded=0;" vertex="1" parent="1">
          <mxGeometry x="160" y="240" width="60" height="30" as="geometry" />
        </mxCell>
        <mxCell id="PuUGM72h_hGncvLsJjf4-4" value="队尾" style="text;html=1;align=center;verticalAlign=middle;whiteSpace=wrap;rounded=0;fontSize=20;" vertex="1" parent="1">
          <mxGeometry x="460" y="240" width="60" height="30" as="geometry" />
        </mxCell>
        <mxCell id="PuUGM72h_hGncvLsJjf4-5" value="10" style="rounded=0;whiteSpace=wrap;html=1;" vertex="1" parent="1">
          <mxGeometry x="370" y="290" width="30" height="60" as="geometry" />
        </mxCell>
        <mxCell id="PuUGM72h_hGncvLsJjf4-8" value="5" style="rounded=0;whiteSpace=wrap;html=1;" vertex="1" parent="1">
          <mxGeometry x="330" y="290" width="30" height="60" as="geometry" />
        </mxCell>
        <mxCell id="PuUGM72h_hGncvLsJjf4-9" value="20" style="rounded=0;whiteSpace=wrap;html=1;" vertex="1" parent="1">
          <mxGeometry x="290" y="290" width="30" height="60" as="geometry" />
        </mxCell>
        <mxCell id="PuUGM72h_hGncvLsJjf4-10" value="2" style="rounded=0;whiteSpace=wrap;html=1;" vertex="1" parent="1">
          <mxGeometry x="250" y="290" width="30" height="60" as="geometry" />
        </mxCell>
        <mxCell id="PuUGM72h_hGncvLsJjf4-11" value="200" style="rounded=0;whiteSpace=wrap;html=1;" vertex="1" parent="1">
          <mxGeometry x="210" y="290" width="30" height="60" as="geometry" />
        </mxCell>
        <mxCell id="PuUGM72h_hGncvLsJjf4-12" value="1" style="rounded=0;whiteSpace=wrap;html=1;" vertex="1" parent="1">
          <mxGeometry x="170" y="290" width="30" height="60" as="geometry" />
        </mxCell>
        <mxCell id="PuUGM72h_hGncvLsJjf4-13" value="4" style="rounded=0;whiteSpace=wrap;html=1;" vertex="1" parent="1">
          <mxGeometry x="600" y="290" width="30" height="60" as="geometry" />
        </mxCell>
        <mxCell id="PuUGM72h_hGncvLsJjf4-14" value="..." style="rounded=0;whiteSpace=wrap;html=1;" vertex="1" parent="1">
          <mxGeometry x="650" y="290" width="30" height="60" as="geometry" />
        </mxCell>
        <mxCell id="PuUGM72h_hGncvLsJjf4-15" value="" style="endArrow=classic;html=1;rounded=0;" edge="1" parent="1">
          <mxGeometry width="50" height="50" relative="1" as="geometry">
            <mxPoint x="150" y="319.5" as="sourcePoint" />
            <mxPoint x="90" y="319.5" as="targetPoint" />
          </mxGeometry>
        </mxCell>
        <mxCell id="PuUGM72h_hGncvLsJjf4-16" value="" style="endArrow=classic;html=1;rounded=0;" edge="1" parent="1">
          <mxGeometry width="50" height="50" relative="1" as="geometry">
            <mxPoint x="580" y="319.5" as="sourcePoint" />
            <mxPoint x="520" y="319.5" as="targetPoint" />
          </mxGeometry>
        </mxCell>
        <mxCell id="PuUGM72h_hGncvLsJjf4-17" value="入队元素" style="text;html=1;align=center;verticalAlign=middle;resizable=0;points=[];autosize=1;strokeColor=none;fillColor=none;" vertex="1" parent="1">
          <mxGeometry x="610" y="260" width="70" height="30" as="geometry" />
        </mxCell>
      </root>
    </mxGraphModel>
  </diagram>
</mxfile>
